<svg width="64" height="64" viewBox="0 0 64 64" fill="none" xmlns="http://www.w3.org/2000/svg">
<path d="M1.56501 37.6802L60.9298 0.163213C61.1104 0.0487589 61.3214 -0.0078525 61.5347 0.000876924C61.7481 0.00960635 61.9537 0.0832647 62.1245 0.212095C62.2952 0.340926 62.423 0.51885 62.4909 0.722299C62.5588 0.925748 62.5636 1.14512 62.5046 1.35137L44.9041 63.2319C44.8599 63.3869 44.781 63.5298 44.6736 63.6496C44.5662 63.7694 44.433 63.863 44.2842 63.9232C44.1353 63.9835 43.9748 64.0088 43.8147 63.9973C43.6547 63.9858 43.4993 63.9377 43.3605 63.8568L1.59627 39.4933C1.43927 39.4017 1.30846 39.271 1.21651 39.1137C1.12456 38.9565 1.07459 38.778 1.07145 38.5956C1.0683 38.4132 1.11209 38.2331 1.19856 38.0727C1.28503 37.9124 1.41126 37.7771 1.56501 37.6802Z" fill="#22BF5A"/>
<path d="M0.373382 37.856C0.998665 38.1306 1.56489 37.6802 1.56489 37.6802L21.9445 24.8003L13.5055 8.50827C13.4125 8.32818 13.27 8.17872 13.0949 8.07768C12.9199 7.97663 12.7196 7.92826 12.518 7.93831C12.3163 7.94837 12.1218 8.01642 11.9575 8.13438C11.7933 8.25234 11.6662 8.41524 11.5914 8.6037L0.176534 37.2997C0.176534 37.2997 0.0271604 37.7012 0.373382 37.856Z" fill="#8CDEA6"/>
<path d="M21.9456 24.8003L1.56605 37.6803C1.56605 37.6803 0.999825 38.1306 0.374542 37.856C0.0271625 37.7047 0.177694 37.2997 0.177694 37.2997L0.0746377 37.5581C-0.0187034 37.7939 -0.0246895 38.0555 0.057769 38.2954C0.140228 38.5352 0.305648 38.7374 0.523915 38.8649L41.6594 62.8666L21.9456 24.8003Z" fill="#22BF5A"/>
</svg>
