<svg width="24" height="24" viewBox="0 0 24 24" fill="none" xmlns="http://www.w3.org/2000/svg">
<path d="M15.6138 17.6276C16.8276 17.6276 17.7931 16.6345 17.7931 15.4483C17.7931 15.0897 17.6828 14.7862 17.5448 14.5103L13.931 7.22759C13.5724 6.51034 12.8552 6.04138 12 6.04138C11.1724 6.04138 10.4276 6.51034 10.069 7.22759L6.45517 14.5103C5.90345 15.5586 6.34483 16.8552 7.42069 17.3793C7.72414 17.5448 8.02759 17.6276 8.38621 17.6276H15.6138ZM8.49655 16.6069C7.83448 16.6069 7.22759 16 7.22759 15.3379C7.22759 15.1724 7.31035 14.9517 7.36552 14.7862L10.8966 7.75172C11.0897 7.33793 11.5034 7.06207 12 7.06207C12.4966 7.06207 12.8828 7.33793 13.131 7.75172L16.6345 14.7862C16.9655 15.4207 16.7172 16.1655 16.0552 16.469C15.8897 16.5517 15.7241 16.6069 15.5034 16.6069H8.49655ZM12 24C5.37931 24 0 18.6207 0 12C0 5.37931 5.37931 0 12 0C18.6207 0 24 5.37931 24 12C24 18.6207 18.6207 24 12 24Z" fill="#0C2246"/>
</svg>
