<svg width="64" height="64" viewBox="0 0 64 64" fill="none" xmlns="http://www.w3.org/2000/svg">
<circle cx="32" cy="32" r="32" fill="#574C43"/>
<path d="M23.257 60.9813C21.4348 57.8133 19.6375 54.6329 18.0695 51.3333C15.7424 46.4391 13.6019 41.4631 12.5939 36.1031C11.8437 32.1191 11.8686 28.16 13.4099 24.3129C14.9673 20.432 17.6837 17.6018 21.3157 15.6178C24.6082 13.8186 28.1548 12.9991 31.9024 12.8178C34.0784 12.7129 36.2206 12.7911 38.3433 13.2071C40.4002 13.6106 42.2313 14.4622 43.705 16.0302C45.8793 18.3431 45.9024 21.2622 43.7477 23.6195C42.1939 25.3173 40.345 26.6009 38.3486 27.7049C35.1877 29.4524 31.8455 30.6791 28.2419 31.1075C27.2375 31.2266 26.217 31.2729 25.2179 30.992C23.6855 30.56 23.3477 29.3511 24.4002 28.1351C25.3228 27.0702 26.5175 26.4426 27.801 25.9555C30.4286 24.9582 33.1717 24.5973 35.9628 24.5315C36.3628 24.5226 36.7735 24.4782 37.1646 24.5386C39.3762 24.8835 40.6739 23.4755 41.977 22.0764C42.3628 21.6622 42.1762 21.4133 41.6837 21.3191C41.1593 21.2195 40.6259 21.1715 40.0962 21.12C35.9362 20.72 31.8313 21.0258 27.8206 22.2346C25.8579 22.8266 24.0002 23.6924 22.4713 25.0595C20.5673 26.7626 19.1966 29.6658 21.3584 32.4675C22.0659 33.3831 22.9993 33.9769 24.1193 34.2737C26.1833 34.8213 28.2419 34.6666 30.3095 34.2666C35.6037 33.2391 40.3824 31.0844 44.5335 27.6515C46.8428 25.7422 48.6508 23.4595 48.9584 20.3111C49.0917 18.9422 48.7326 17.6658 48.1904 16.4409C46.7379 13.1555 44.0802 11.264 40.7433 10.2524C38.2508 9.49509 35.6748 9.15197 33.0704 9.26753C27.7708 9.49864 22.6828 10.5315 18.1762 13.536C12.9833 16.9955 9.90771 21.776 8.98326 27.9715C8.3486 32.2257 8.8926 36.3644 9.93793 40.4657C11.1539 45.2409 13.0722 49.7511 15.3299 54.1226C16.0873 55.5911 16.9335 57.0115 17.7548 58.4462C17.8348 58.5849 17.9326 58.7111 17.993 58.8622C18.0979 59.12 18.1744 59.3937 17.9735 59.6177C17.9504 59.6444 17.9255 59.6657 17.9006 59.6853C19.8028 60.576 21.8064 61.2835 23.8899 61.7884C23.657 61.5751 23.4473 61.3102 23.257 60.9813Z" fill="white"/>
<path d="M36.105 48.8907C41.9717 48.3058 47.1308 46.2062 51.1895 41.8134C53.145 39.696 54.7842 37.3742 55.273 34.4391C56.0019 30.0516 54.5513 26.5422 50.985 23.8791C50.521 23.5325 50.2704 23.4507 50.0179 24.0978C49.6766 24.9671 49.1735 25.7636 48.5477 26.464C48.2135 26.8374 48.1975 27.0542 48.6473 27.3902C51.1522 29.2569 51.9699 32.1031 50.8019 34.9885C49.8348 37.3778 48.1104 39.1982 46.1104 40.7556C41.8704 44.0569 36.9548 45.0276 31.7086 44.8142C28.9477 44.7022 26.2473 44.2169 23.5682 43.5627C22.3255 43.2605 21.209 43.92 20.937 45.0276C20.6384 46.24 21.2677 47.2622 22.5442 47.6338C25.9024 48.6133 29.3442 48.9831 32.8268 49.0631C33.9219 49.0862 35.0135 48.9991 36.105 48.8907Z" fill="white"/>
</svg>
