<svg width="64" height="64" viewBox="0 0 64 64" fill="none" xmlns="http://www.w3.org/2000/svg">
<path d="M7.63214 29.6202C12.3652 25.0851 18.2686 23.9922 24.542 22.8305C29.6192 21.8925 33.4831 21.8925 41.9854 20.3004C44.7771 19.6588 47.4514 18.5845 49.9111 17.1164C51.9936 15.8944 53.0607 14.8962 53.6975 13.5193C54.2616 12.2476 54.4411 10.8386 54.2138 9.46608C53.0976 8.33381 51.898 7.28674 50.6253 6.33367C50.9048 7.93732 50.6793 9.58818 49.9799 11.0581C48.4912 13.9668 45.1264 15.1027 39.9287 16.1181C33.5123 17.3452 26.9858 17.9018 20.4544 17.779C24.6453 16.6947 28.1993 15.6621 31.0219 14.8101C38.7239 12.4264 41.4777 11.1872 42.7771 8.54529C43.3611 7.44879 43.5496 6.18454 43.3106 4.96539C42.605 2.03091 39.0939 0.91219 38.5776 0.75729C36.3169 0.256699 34.0086 0.00278549 31.6932 4.16552e-06C26.7222 -0.00254487 21.8205 1.16483 17.3843 3.40773C12.9481 5.65062 9.10203 8.90607 6.15713 12.9108C3.21223 16.9155 1.25116 21.5571 0.432517 26.4602C-0.386127 31.3633 -0.0393637 36.3902 1.44476 41.1344C2.32647 36.7701 4.47921 32.764 7.63214 29.6202V29.6202Z" fill="#78479A"/>
<path d="M58.3273 14.5605C57.7405 15.825 57.0099 17.0175 56.1501 18.1146C54.7161 19.925 52.9669 21.4613 50.9868 22.6497C47.4847 24.7707 43.6679 26.3218 39.6791 27.2451C27.9326 30.0333 25.5574 27.8733 17.7264 31.0573C12.15 33.3206 10.1794 35.7043 9.26719 37.0812C7.42124 39.7825 6.59754 43.0529 6.94369 46.3063C7.30226 48.3653 8.08787 50.3264 9.24997 52.0634C10.6157 54.3982 12.3606 56.4893 14.4133 58.2508V58.2508C13.6851 57.1754 13.0816 56.0205 12.6147 54.8086C12.3986 54.2466 12.2175 53.6718 12.0726 53.0875C11.7294 51.68 11.576 50.2329 11.6165 48.7847C11.617 45.968 12.522 43.226 14.1982 40.9623C15.5578 39.2498 17.3116 37.8916 19.3098 37.0037C20.8555 36.2939 22.4963 35.8127 24.1806 35.5752C27.8379 34.9212 31.4608 34.0693 35.1182 33.4152C39.2887 32.6521 43.3899 31.5498 47.381 30.1193C46.8641 31.1527 46.1971 32.1039 45.4018 32.9419C42.8201 35.6441 39.9028 36.0227 35.187 37.3566C29.4902 38.9744 26.6417 39.7833 24.2838 41.6593C23.1307 42.5199 19.4217 45.4544 18.7505 50.2649C17.7867 57.1407 24.0945 62.2007 24.4818 62.5191C29.1281 63.6013 33.9588 63.6201 38.6133 62.574C43.2679 61.5279 47.6261 59.444 51.3625 56.4778C55.099 53.5116 58.1172 49.7398 60.1919 45.4439C62.2666 41.148 63.3442 36.439 63.3443 31.6683C63.354 25.6016 61.6119 19.6611 58.3273 14.5605V14.5605Z" fill="#78479A"/>
</svg>
