<?xml version="1.0" standalone="no"?>
<!DOCTYPE svg PUBLIC "-//W3C//DTD SVG 20010904//EN"
 "http://www.w3.org/TR/2001/REC-SVG-20010904/DTD/svg10.dtd">
<svg version="1.0" xmlns="http://www.w3.org/2000/svg"
 width="88.000000pt" height="88.000000pt" viewBox="0 0 88.000000 88.000000"
 preserveAspectRatio="xMidYMid meet">

<g transform="translate(0.000000,88.000000) scale(0.100000,-0.100000)"
fill="#000000" stroke="none">
<path d="M2 443 l3 -438 435 0 435 0 3 438 2 437 -440 0 -440 0 2 -437z m539
202 c37 -20 85 -77 99 -120 12 -36 10 -144 -4 -175 -4 -10 7 -23 36 -40 42
-24 42 -25 16 -28 -15 -2 -38 4 -50 12 -20 14 -24 14 -40 -1 -18 -16 -17 -18
19 -40 l38 -23 -35 0 c-20 0 -41 5 -48 12 -9 9 -21 9 -50 0 -111 -33 -215 6
-262 98 -65 131 0 287 134 321 39 10 112 1 147 -16z"/>
<path d="M394 626 c-38 -17 -68 -57 -83 -111 -41 -148 52 -283 172 -248 l32 9
-50 29 c-48 29 -49 30 -22 33 15 2 42 -6 60 -17 26 -16 36 -18 45 -9 20 20 14
32 -26 55 l-37 22 28 1 c16 0 37 -4 47 -10 38 -20 38 105 -1 181 -31 63 -105
92 -165 65z"/>
</g>
</svg>
