<svg width="64" height="64" viewBox="0 0 64 64" fill="none" xmlns="http://www.w3.org/2000/svg">
<g clip-path="url(#clip0_478_4371)">
<path d="M40.8887 64H63.9998L40.8887 40.8889V64Z" fill="#334155"/>
<path d="M63.9998 1.16575e-06L50.6665 0L63.9998 13.3333V1.16575e-06Z" fill="#00C6A2"/>
<path fill-rule="evenodd" clip-rule="evenodd" d="M41.8661 40.889C41.5384 40.889 41.2124 40.8806 40.8887 40.8636V26.1039L56.8617 11.2009C59.1141 14.2896 60.4442 18.0999 60.4442 22.2223C60.4442 32.5317 52.1265 40.889 41.8661 40.889ZM52.6899 7.04919L40.8887 18.0596V3.58106C41.2124 3.5642 41.5384 3.55566 41.8661 3.55566C45.9045 3.55566 49.6421 4.85037 52.6899 7.04919Z" fill="#334155"/>
<path fill-rule="evenodd" clip-rule="evenodd" d="M39.1113 3.55566H21.3335V20.8678L29.3106 28.742L39.1113 19.7588V3.55566ZM39.1113 27.7412L29.1582 36.8639L21.3335 29.1402V64.0001H39.1113V27.7412Z" fill="#334155"/>
<path fill-rule="evenodd" clip-rule="evenodd" d="M19.5556 3.55566H0V28.6675L14.6675 14.0431L19.5556 18.9168V3.55566ZM19.5556 27.1892L14.6675 22.3156L0 36.9399V64.0001H19.5556V27.1892Z" fill="#334155"/>
</g>
<defs>
<clipPath id="clip0_478_4371">
<rect width="64" height="64" fill="white"/>
</clipPath>
</defs>
</svg>
