<svg width="44" height="60" viewBox="0 0 44 60" fill="none" xmlns="http://www.w3.org/2000/svg">
<path d="M36.5138 54.0424L22 46.8123V51.547L32.7017 56.8782C29.4778 58.7557 25.8164 59.7515 22.0857 59.7657C18.3549 59.7798 14.6861 58.8117 11.4481 56.9587C8.20998 55.1057 5.51666 52.433 3.63878 49.2093C1.76089 45.9856 0.76459 42.3244 0.75 38.5936V11.3208L22 0.734863L43.25 11.3208V19.2895L22 8.7034V13.4377L43.25 24.0236V31.9923L22 21.4064V26.1407L43.25 36.7264V38.5936C43.251 40.524 42.9865 42.4454 42.4638 44.3037L22 34.1093V38.8435L40.9023 48.26C39.781 50.4244 38.2966 52.3802 36.5138 54.0424Z" fill="#085CDB"/>
</svg>
