<svg width="75" height="85" viewBox="0 0 75 85" fill="none" xmlns="http://www.w3.org/2000/svg">
<g clip-path="url(#clip0_4867_69357)">
<path d="M23.7327 24.4371L37.4857 0.506836L51.2388 24.4371L37.4857 32.4094L23.7327 24.4371Z" fill="#00C5C1"/>
<path d="M12.272 44.3945L19.1616 32.4097L37.499 43.0526L55.8365 32.4097L62.7261 44.3945L37.499 59.0237L12.272 44.3945Z" fill="#00C5C1"/>
<path d="M0.797974 64.3514L7.6876 52.3666L37.4728 69.6663L67.3104 52.3666L74.1477 64.3514L73.1522 64.5619C62.8701 66.7589 48.6979 74.9812 41.7166 82.822C41.1859 83.4159 40.5367 83.8909 39.8112 84.216C39.0856 84.5412 38.3 84.7092 37.5056 84.7092C36.7111 84.7092 35.9255 84.5412 35.2 84.216C34.4744 83.8909 33.8252 83.4159 33.2945 82.822V82.822C26.2608 74.9286 12.0886 66.7589 1.85892 64.5619L0.797974 64.3514Z" fill="#00C5C1"/>
<path d="M37.4857 32.4094L23.7327 24.4371L37.4857 0.506836V32.4094Z" fill="#009A96"/>
<path d="M37.499 59.0237L12.272 44.3945L19.1616 32.4097L37.499 43.0526V59.0237Z" fill="#009A96"/>
<path d="M37.4728 84.7033C36.6778 84.7042 35.8915 84.5371 35.1649 84.213C34.4383 83.8889 33.7877 83.415 33.2552 82.822V82.822C26.2215 74.9286 12.0493 66.7589 1.81963 64.5619L0.797974 64.3514L7.6876 52.3666L37.4728 69.6663V84.7033Z" fill="#009A96"/>
</g>
<defs>
<clipPath id="clip0_4867_69357">
<rect width="73.4021" height="84.1965" fill="white" transform="translate(0.797974 0.506836)"/>
</clipPath>
</defs>
</svg>
