<?xml version="1.0" standalone="no"?>
<!DOCTYPE svg PUBLIC "-//W3C//DTD SVG 20010904//EN"
 "http://www.w3.org/TR/2001/REC-SVG-20010904/DTD/svg10.dtd">
<svg version="1.0" xmlns="http://www.w3.org/2000/svg"
 width="500.000000pt" height="500.000000pt" viewBox="0 0 500.000000 500.000000"
 preserveAspectRatio="xMidYMid meet">

<g transform="translate(0.000000,500.000000) scale(0.100000,-0.100000)"
fill="#000000" stroke="none">
<path d="M1283 3715 c-137 -37 -276 -147 -341 -271 -68 -130 -79 -292 -30
-424 14 -36 284 -510 600 -1055 634 -1092 632 -1089 766 -1157 94 -49 153 -63
262 -63 155 1 291 60 390 172 28 31 238 382 550 919 679 1170 667 1148 685
1210 84 290 -94 600 -386 669 -93 21 -2415 21 -2496 0z m1357 -302 c30 -16 66
-44 81 -63 15 -19 168 -278 340 -574 l313 -539 -21 -36 c-12 -20 -154 -265
-317 -546 -186 -321 -310 -526 -336 -552 -103 -107 -282 -88 -367 39 -16 24
-166 278 -333 566 -276 477 -302 525 -292 548 7 13 149 262 317 552 319 549
350 595 427 619 63 20 130 15 188 -14z"/>
</g>
</svg>
