<svg width="64" height="64" viewBox="0 0 64 64" fill="none" xmlns="http://www.w3.org/2000/svg">
<g clip-path="url(#clip0_478_4341)">
<path d="M36.6996 5.7583C37.7351 5.7583 38.5746 4.91884 38.5746 3.8833C38.5746 2.84777 37.7351 2.0083 36.6996 2.0083C35.6641 2.0083 34.8246 2.84777 34.8246 3.8833C34.8246 4.91884 35.6641 5.7583 36.6996 5.7583Z" fill="#9BCADA"/>
<path d="M60.1165 9.7749C61.152 9.7749 61.9915 8.93544 61.9915 7.8999C61.9915 6.86437 61.152 6.0249 60.1165 6.0249C59.081 6.0249 58.2415 6.86437 58.2415 7.8999C58.2415 8.93544 59.081 9.7749 60.1165 9.7749Z" fill="#C6E0EA"/>
<path d="M54.0917 47.9334C55.1272 47.9334 55.9667 47.0939 55.9667 46.0584C55.9667 45.0228 55.1272 44.1833 54.0917 44.1833C53.0561 44.1833 52.2167 45.0228 52.2167 46.0584C52.2167 47.0939 53.0561 47.9334 54.0917 47.9334Z" fill="#F0F5FA"/>
<path d="M42.0414 57.9749C43.0769 57.9749 43.9164 57.1354 43.9164 56.0999C43.9164 55.0643 43.0769 54.2249 42.0414 54.2249C41.0058 54.2249 40.1664 55.0643 40.1664 56.0999C40.1664 57.1354 41.0058 57.9749 42.0414 57.9749Z" fill="#9BCADA"/>
<path d="M5.89148 25.8416C6.92701 25.8416 7.76648 25.0021 7.76648 23.9666C7.76648 22.931 6.92701 22.0916 5.89148 22.0916C4.85595 22.0916 4.01648 22.931 4.01648 23.9666C4.01648 25.0021 4.85595 25.8416 5.89148 25.8416Z" fill="#F0F5FA"/>
<path d="M62.125 57.2376H60.9875V56.1001C60.9875 55.0646 60.148 54.2251 59.1125 54.2251C58.077 54.2251 57.2375 55.0646 57.2375 56.1001V57.2376H56.1C55.0645 57.2376 54.225 58.0771 54.225 59.1126C54.225 60.1481 55.0645 60.9876 56.1 60.9876H57.2375V62.1251C57.2375 63.1606 58.077 64.0001 59.1125 64.0001C60.148 64.0001 60.9875 63.1606 60.9875 62.1251V60.9876H62.125C63.1605 60.9876 64 60.1481 64 59.1126C64 58.0771 63.1605 57.2376 62.125 57.2376Z" fill="#C6E0EA"/>
<path d="M30.6196 58.7401C37.6252 51.7344 37.6252 40.3761 30.6197 33.3705C23.6141 26.3649 12.2558 26.365 5.25012 33.3706C-1.75551 40.3762 -1.75555 51.7346 5.25003 58.7401C12.2556 65.7457 23.6139 65.7457 30.6196 58.7401Z" fill="#00F4FF"/>
<path d="M50.0748 39.9001C57.7654 39.9001 63.9998 33.6656 63.9998 25.9751C63.9998 18.2845 57.7654 12.05 50.0748 12.05C42.3842 12.05 36.1498 18.2845 36.1498 25.9751C36.1498 33.6656 42.3842 39.9001 50.0748 39.9001Z" fill="#FF6378"/>
<path d="M22.3613 17.1266C26.9052 15.2431 29.0619 10.0328 27.1785 5.48888C25.295 0.945009 20.0846 -1.21169 15.5408 0.671751C10.9969 2.5552 8.84019 7.76557 10.7236 12.3094C12.6071 16.8533 17.8175 19.01 22.3613 17.1266Z" fill="#FFB428"/>
<path d="M17.9418 28.1167V64.0001C27.8349 64.0001 35.8835 55.9515 35.8835 46.0585C35.8835 36.1655 27.8349 28.1167 17.9418 28.1167Z" fill="#00B4FC"/>
<path d="M35.8832 46.0585C35.8832 36.1653 27.8346 28.1167 17.9415 28.1167C10.211 28.1167 3.60675 33.0312 1.08875 39.9001H19.9499C21.1307 39.9001 22.0915 40.8608 22.0915 42.0417C22.0915 43.2416 21.1196 44.1833 19.9499 44.1833H15.9332C12.7474 44.1833 10.0416 46.7524 10.0416 50.0749C10.0416 53.3236 12.6846 55.9666 15.9332 55.9666H32.8914C34.7806 53.1257 35.8832 49.7186 35.8832 46.0585Z" fill="#00B4FC"/>
<path d="M35.8835 46.0584C35.8835 36.1653 27.8349 28.1167 17.9418 28.1167V39.9001H19.9501C21.131 39.9001 22.0918 40.8608 22.0918 42.0417C22.0918 43.2416 21.1199 44.1833 19.9501 44.1833H17.9418V55.9667H32.8916C34.7809 53.1257 35.8835 49.7186 35.8835 46.0584Z" fill="#0073F9"/>
<path d="M50.075 39.9001V12.05C57.7532 12.05 64 18.2968 64 25.9751C64 33.6533 57.7532 39.9001 50.075 39.9001Z" fill="#D000B1"/>
<path d="M52.0834 28.1167H36.3147C36.5194 29.4368 36.9107 30.6957 37.4597 31.8667H52.0832C53.1187 31.8667 53.9582 31.0272 53.9582 29.9917C53.9582 28.9562 53.1189 28.1167 52.0834 28.1167Z" fill="#D000B1"/>
<path d="M62.6904 20.0835H48.0668C47.0313 20.0835 46.1918 20.923 46.1918 21.9585C46.1918 22.994 47.0313 23.8335 48.0668 23.8335H63.8354C63.6308 22.5134 63.2394 21.2544 62.6904 20.0835Z" fill="#D000B1"/>
<path d="M53.9584 29.9917C53.9584 28.9562 53.1189 28.1167 52.0834 28.1167H50.075V31.8667H52.0832C53.1189 31.8667 53.9584 31.0272 53.9584 29.9917Z" fill="#9330A0"/>
<path d="M63.7572 23.3837C63.752 23.3557 63.7466 23.3277 63.7411 23.2999C63.6816 22.9956 63.6125 22.6949 63.5335 22.3981C63.5287 22.3801 63.5237 22.3622 63.5189 22.3442C63.479 22.1967 63.4371 22.05 63.3925 21.9045C63.3922 21.9036 63.392 21.9027 63.3917 21.9017C63.2959 21.5892 63.1892 21.2815 63.0725 20.9787C63.0722 20.9781 63.0721 20.9776 63.0719 20.9771C62.9549 20.674 62.8275 20.376 62.6904 20.0835H50.075V23.8335H63.8352C63.8119 23.6825 63.7854 23.5329 63.7572 23.3837Z" fill="#9330A0"/>
<path d="M27.8498 8.90413C27.8498 3.99438 23.8554 0 18.9457 0V17.8084C23.8554 17.8084 27.8498 13.814 27.8498 8.90413Z" fill="#FF8C00"/>
</g>
<defs>
<clipPath id="clip0_478_4341">
<rect width="64" height="64" fill="white"/>
</clipPath>
</defs>
</svg>
